<?xml version="1.0" standalone="no"?><!DOCTYPE svg PUBLIC "-//W3C//DTD SVG 1.1//EN" "http://www.w3.org/Graphics/SVG/1.1/DTD/svg11.dtd"><svg t="1666076586641" class="icon" viewBox="0 0 1024 1024" version="1.1" xmlns="http://www.w3.org/2000/svg" p-id="5026" xmlns:xlink="http://www.w3.org/1999/xlink" width="32" height="32"><path d="M735.567845 511.745197c17.662265 0 31.980365-14.3181 31.980365-31.980365L767.54821 159.962202c0-17.662265-14.3181-31.980365-31.980365-31.980365L287.843754 127.981836c-17.662265 0-31.980365 14.3181-31.980365 31.980365 0 17.662265 14.3181 31.980365 31.980365 31.980365l415.743726 0 0 255.842922L287.843754 447.785489c-17.662265 0-31.980365 14.3181-31.980365 31.980365l0 383.76336c0 1.104147 0.056282 2.194992 0.164752 3.269463s0.271176 2.134617 0.485047 3.175319c0.106424 0.520863 0.226151 1.036609 0.357134 1.547239 0.26299 1.022283 0.575098 2.0241 0.933255 3.003404 1.613754 4.408403 4.170996 8.362458 7.426133 11.617595 2.53166 2.53166 5.486968 4.641717 8.748245 6.213515 4.194532 2.02103 8.897647 3.15383 13.864776 3.15383l447.724091 0c17.662265 0 31.980365-14.3181 31.980365-31.980365s-14.3181-31.980365-31.980365-31.980365L319.824119 831.54885 319.824119 511.745197 735.567845 511.745197z" p-id="5027"></path></svg>