<?xml version="1.0" standalone="no"?><!DOCTYPE svg PUBLIC "-//W3C//DTD SVG 1.1//EN" "http://www.w3.org/Graphics/SVG/1.1/DTD/svg11.dtd"><svg t="1666076474976" class="icon" viewBox="0 0 1024 1024" version="1.1" xmlns="http://www.w3.org/2000/svg" p-id="4871" xmlns:xlink="http://www.w3.org/1999/xlink" width="32" height="32"><path d="M735.567845 127.981836 287.843754 127.981836c-17.662265 0-31.980365 14.3181-31.980365 31.980365 0 17.662265 14.3181 31.980365 31.980365 31.980365l415.743726 0 0 255.842922L287.843754 447.785489c-17.662265 0-31.980365 14.3181-31.980365 31.980365s14.3181 31.980365 31.980365 31.980365l415.743726 0 0 319.80263L287.843754 831.54885c-17.662265 0-31.980365 14.3181-31.980365 31.980365s14.3181 31.980365 31.980365 31.980365l447.724091 0c4.967128 0 9.670244-1.1328 13.864776-3.15383 3.2623-1.571798 6.216585-3.680832 8.748245-6.213515 3.255137-3.255137 5.812379-7.209192 7.426133-11.617595 0.35918-0.979304 0.671289-1.982144 0.933255-3.003404 0.130983-0.51063 0.25071-1.026376 0.357134-1.547239 0.212848-1.040702 0.375553-2.099824 0.485047-3.175319s0.164752-2.166339 0.164752-3.269463L767.547187 479.764831 767.547187 159.962202C767.54821 142.299937 753.23011 127.981836 735.567845 127.981836z" p-id="4872"></path></svg>